<svg width="33" height="31" viewBox="0 0 33 31" fill="none" xmlns="http://www.w3.org/2000/svg">
<rect width="32.0333" height="31" rx="15" fill="#15416B"/>
<path d="M22.1313 8.26709H11.2813C10.9484 8.26709 10.6785 8.53696 10.6785 8.86986V13.0893C10.6785 13.4222 10.9484 13.6921 11.2813 13.6921C11.6142 13.6921 11.8841 13.4222 11.8841 13.0893V9.47263H21.5285V21.5282H11.8841V17.9115C11.8841 17.5786 11.6142 17.3088 11.2813 17.3088C10.9484 17.3088 10.6786 17.5786 10.6786 17.9115V22.131C10.6786 22.4639 10.9484 22.7337 11.2813 22.7337H22.1313C22.4642 22.7337 22.7341 22.4639 22.7341 22.131V8.86986C22.7341 8.53696 22.4642 8.26709 22.1313 8.26709Z" fill="white"/>
<path d="M13.8683 17.4863C13.6329 17.7217 13.6329 18.1033 13.8683 18.3387C14.1037 18.5741 14.4854 18.5741 14.7208 18.3387L17.1319 15.9276C17.132 15.9275 17.132 15.9274 17.1321 15.9273C17.1461 15.9134 17.1593 15.8987 17.1718 15.8835C17.1775 15.8765 17.1825 15.8691 17.1879 15.862C17.1943 15.8534 17.2009 15.845 17.2069 15.8361C17.2126 15.8275 17.2176 15.8186 17.2228 15.8098C17.2277 15.8017 17.2327 15.7938 17.2372 15.7855C17.242 15.7765 17.2461 15.7673 17.2504 15.7581C17.2545 15.7494 17.2588 15.7409 17.2625 15.732C17.2662 15.7231 17.2692 15.714 17.2724 15.705C17.2758 15.6955 17.2795 15.6861 17.2824 15.6764C17.2851 15.6673 17.2871 15.6581 17.2894 15.649C17.2919 15.6391 17.2947 15.6293 17.2967 15.6192C17.2988 15.6086 17.3001 15.5979 17.3016 15.5873C17.3029 15.5785 17.3045 15.5698 17.3054 15.5609C17.3093 15.5213 17.3093 15.4815 17.3054 15.4419C17.3045 15.433 17.3029 15.4244 17.3016 15.4156C17.3001 15.4049 17.2988 15.3942 17.2967 15.3836C17.2947 15.3735 17.2919 15.3637 17.2894 15.3538C17.2871 15.3447 17.2851 15.3355 17.2824 15.3264C17.2795 15.3167 17.2758 15.3073 17.2724 15.2978C17.2691 15.2888 17.2662 15.2797 17.2625 15.2708C17.2588 15.2619 17.2545 15.2534 17.2504 15.2447C17.2461 15.2355 17.242 15.2263 17.2372 15.2173C17.2327 15.209 17.2277 15.2011 17.2228 15.193C17.2176 15.1842 17.2126 15.1753 17.2069 15.1667C17.2009 15.1578 17.1943 15.1495 17.1879 15.1409C17.1825 15.1337 17.1775 15.1263 17.1718 15.1194C17.1593 15.1041 17.1461 15.0894 17.1321 15.0755C17.132 15.0754 17.132 15.0753 17.1319 15.0752L14.7208 12.6641C14.4854 12.4287 14.1037 12.4287 13.8683 12.6641C13.6329 12.8995 13.6329 13.2812 13.8683 13.5166L15.2504 14.8987H8.86952C8.53662 14.8986 8.26675 15.1685 8.26675 15.5014C8.26675 15.8343 8.53662 16.1041 8.86952 16.1041H15.2504L13.8683 17.4863Z" fill="white"/>
</svg>
