<svg width="404" height="160" viewBox="0 0 404 160" fill="none" xmlns="http://www.w3.org/2000/svg">
    <path d="M102.243 151H76.5028V117.78H6.54281V97.1L66.8228 4.25999H102.243V95.12H121.823V117.78H102.243V151ZM76.5028 95.12V27.36L31.8428 95.12H76.5028Z"
          fill="#15416B"/>
    <path d="M338.392 153.64C325.925 153.64 314.852 151.44 305.172 147.04C295.639 142.64 288.232 136.92 282.952 129.88L296.812 112.94C301.505 118.367 307.519 122.693 314.852 125.92C322.185 129.147 329.739 130.76 337.512 130.76C347.045 130.76 354.525 128.78 359.952 124.82C365.379 120.713 368.092 115.213 368.092 108.32C368.092 94.5333 357.239 87.64 335.532 87.64C325.705 87.64 320.059 87.7133 318.592 87.86V64.76C320.352 64.9067 325.999 64.98 335.532 64.98C344.625 64.98 351.885 63.3667 357.312 60.14C362.885 56.9133 365.672 52.0733 365.672 45.62C365.672 39.02 362.885 33.96 357.312 30.44C351.739 26.7733 344.625 24.94 335.972 24.94C321.599 24.94 308.985 30.3667 298.132 41.22L284.932 25.16C297.985 9.75999 315.805 2.05999 338.392 2.05999C354.379 2.05999 367.212 5.65333 376.892 12.84C386.572 19.88 391.412 29.4867 391.412 41.66C391.412 50.7533 388.185 58.3067 381.732 64.32C375.425 70.1867 368.019 73.8533 359.512 75.32C367.872 76.0533 375.645 79.5733 382.832 85.88C390.019 92.1867 393.612 100.547 393.612 110.96C393.612 123.573 388.552 133.84 378.432 141.76C368.459 149.68 355.112 153.64 338.392 153.64Z"
          fill="#15416B"/>
    <path d="M175.007 34.5076C174.915 34.5076 174.823 34.5046 174.73 34.4991C172.392 34.3578 170.575 32.4659 170.478 30.1748C170.079 29.4374 168.285 27.2973 163.506 24.159C159.367 21.4414 155.57 19.6874 154.306 19.3581C151.886 18.7265 150.435 16.2524 151.067 13.8322C151.698 11.4122 154.172 9.96263 156.593 10.5925C159.586 11.3733 165.079 14.2268 169.654 17.3777C176.628 22.1806 179.765 26.2713 179.524 30.251C179.379 32.6548 177.384 34.5073 175.007 34.5076ZM170.482 29.7049C170.482 29.7058 170.482 29.707 170.482 29.7081C170.482 29.707 170.482 29.7058 170.482 29.7049Z"
          fill="#7ED9D3"/>
    <path d="M268.542 129.838C267.985 129.838 267.419 129.735 266.869 129.517C261.315 127.307 258.767 123.518 256.72 120.474C254.931 117.814 253.805 116.266 251.459 115.383C249.118 114.501 247.935 111.889 248.816 109.547C249.698 107.206 252.311 106.024 254.651 106.905C259.82 108.852 262.269 112.493 264.237 115.419C265.931 117.937 267.268 119.926 270.218 121.1C272.542 122.024 273.677 124.658 272.752 126.982C272.046 128.757 270.343 129.838 268.542 129.838Z"
          fill="#7ED9D3"/>
    <path d="M248.739 43.8169C246.896 43.8169 245.163 42.6831 244.489 40.8527C243.624 38.5054 244.825 35.9015 247.172 35.0363C247.966 34.744 248.788 34.482 249.658 34.2043C254.14 32.7734 259.22 31.1522 262.133 24.7221C263.165 22.4434 265.849 21.4335 268.127 22.4648C270.406 23.4969 271.417 26.1808 270.385 28.4595C265.811 38.5575 257.423 41.2344 252.412 42.8343C251.64 43.0804 250.911 43.3136 250.305 43.5368C249.788 43.7267 249.259 43.8169 248.739 43.8169Z"
          fill="#7ED9D3"/>
    <path d="M228.829 22.5152C228.324 22.5152 227.811 22.4302 227.308 22.2512C224.952 21.4113 223.722 18.8203 224.562 16.4639C224.596 16.3675 224.635 16.2553 224.679 16.1294C225.193 14.6484 226.261 11.5673 228.355 8.42926C231.143 4.25124 234.724 1.48004 238.997 0.193032C241.393 -0.526792 243.919 0.828775 244.641 3.22409C245.362 5.6194 244.005 8.14596 241.61 8.86725C236.223 10.4891 233.976 16.9684 233.237 19.0977C233.184 19.2512 233.137 19.3878 233.095 19.5055C232.434 21.3591 230.69 22.5152 228.829 22.5152Z"
          fill="#7ED9D3"/>
    <path d="M148.29 139.248C147.824 139.248 147.35 139.175 146.884 139.023C144.506 138.247 143.207 135.69 143.984 133.312C146.48 125.665 153.697 123.241 158.966 121.471C160.537 120.944 162.02 120.446 163.089 119.912C165.328 118.795 168.047 119.705 169.165 121.943C170.282 124.181 169.373 126.901 167.134 128.018C165.502 128.832 163.645 129.456 161.85 130.059C156.914 131.717 153.603 133.034 152.595 136.123C151.971 138.034 150.197 139.248 148.29 139.248Z"
          fill="#7ED9D3"/>
    <path d="M223.505 150C222.692 150 221.869 149.781 221.127 149.322C215.515 145.853 210.817 137.802 210.198 130.596C209.985 128.103 211.832 125.909 214.324 125.695C216.819 125.483 219.01 127.329 219.224 129.821C219.595 134.138 222.71 139.651 225.89 141.617C228.018 142.933 228.677 145.724 227.361 147.852C226.505 149.237 225.022 150 223.505 150Z"
          fill="#7ED9D3"/>
    <path d="M135.453 86.8707C134.419 86.8707 133.38 86.5189 132.53 85.799C130.62 84.183 130.382 81.3251 131.997 79.4155C138.351 71.9065 145.856 68.8054 152.587 70.9072C154.975 71.6531 156.306 74.1931 155.56 76.5805C154.815 78.9688 152.274 80.2997 149.887 79.5541C146.303 78.4356 141.87 81.7719 138.913 85.267C138.017 86.3258 136.739 86.8707 135.453 86.8707Z"
          fill="#7ED9D3"/>
    <path opacity="0.15"
          d="M244.489 40.8521C245.163 42.6829 246.896 43.8167 248.739 43.8167C249.259 43.8167 249.788 43.7265 250.305 43.5363C250.91 43.3131 251.639 43.0802 252.412 42.8338C253.442 42.5051 254.616 42.1289 255.869 41.6537L256.214 34.7364C256.268 33.6548 256.257 32.5816 256.185 31.5205C254.073 32.7929 251.797 33.5209 249.658 34.2038C248.788 34.4815 247.966 34.7437 247.172 35.0358C244.826 35.901 243.624 38.5052 244.489 40.8521Z"
          fill="black"/>
    <path opacity="0.15"
          d="M225.349 142.105C225.737 142.105 226.124 142.096 226.511 142.083C226.32 141.914 226.116 141.756 225.891 141.617C222.711 139.651 219.596 134.138 219.225 129.821C219.011 127.329 216.82 125.483 214.325 125.695C211.832 125.91 209.986 128.103 210.199 130.596C210.463 133.667 211.47 136.891 212.97 139.848C216.962 141.346 221.117 142.105 225.349 142.105Z"
          fill="black"/>
    <path opacity="0.15"
          d="M254.651 106.905C252.311 106.024 249.698 107.206 248.816 109.548C247.935 111.889 249.118 114.501 251.459 115.383C253.805 116.266 254.931 117.814 256.72 120.474C256.965 120.838 257.218 121.214 257.482 121.596C259.084 118.161 260.112 114.488 260.528 110.682C259.041 109.207 257.171 107.854 254.651 106.905Z"
          fill="black"/>
    <path opacity="0.15"
          d="M224.679 16.1292C224.635 16.2555 224.596 16.3674 224.562 16.4638C223.722 18.8201 224.952 21.4111 227.308 22.2511C227.811 22.4301 228.324 22.515 228.829 22.515C230.69 22.515 232.435 21.3587 233.095 19.5051C233.137 19.3873 233.184 19.2508 233.238 19.0973C233.932 17.0948 235.962 11.2454 240.682 9.20693C237.234 7.62988 233.462 6.7832 229.631 6.7832C229.605 6.7832 229.58 6.78438 229.554 6.78438C229.14 7.30645 228.739 7.85283 228.355 8.42881C226.261 11.5671 225.193 14.6485 224.679 16.1292Z"
          fill="black"/>
    <path opacity="0.15"
          d="M161.849 130.059C163.645 129.456 165.501 128.832 167.134 128.018C169.372 126.901 170.281 124.181 169.164 121.943C168.046 119.705 165.327 118.795 163.089 119.912C162.02 120.446 160.536 120.944 158.966 121.472C156.422 122.326 153.426 123.334 150.726 125.007C153.242 127.397 156.032 129.423 159.028 131.054C159.898 130.725 160.837 130.399 161.849 130.059Z"
          fill="black"/>
    <path opacity="0.15"
          d="M172.977 19.8486L172.004 21.7356C171.093 23.5046 169.431 24.767 167.482 25.171L165.554 25.5706C168.817 27.9387 170.142 29.5541 170.478 30.1749C170.575 32.4659 172.391 34.3576 174.73 34.4988C174.823 34.5044 174.915 34.5073 175.007 34.5073C177.383 34.507 179.379 32.6546 179.524 30.2508C179.722 26.9713 177.624 23.6156 172.977 19.8486Z"
          fill="black"/>
    <path opacity="0.15"
          d="M140.882 73.5235C141.874 74.4508 142.278 75.8468 141.936 77.1604L140.187 83.8709C143.053 80.9526 146.787 78.5872 149.887 79.5546C152.274 80.3005 154.815 78.9692 155.56 76.5809C156.306 74.1932 154.975 71.6532 152.587 70.9073C148.522 69.6379 144.174 70.2695 139.968 72.6212C140.266 72.9273 140.568 73.2297 140.882 73.5235Z"
          fill="black"/>
    <path d="M225.349 137.709C221.059 137.709 216.855 136.819 212.855 135.06L207.235 132.591C203.769 131.069 200.092 130.296 196.306 130.296C195.674 130.296 195.033 130.319 194.403 130.364L180.424 131.345C179.585 131.403 178.735 131.433 177.898 131.433C166.934 131.433 156.784 126.436 150.051 117.724C143.329 109.025 141.064 97.9296 143.839 87.2837L147.176 74.4795C147.316 73.9401 147.15 73.3686 146.743 72.9877L143.884 70.3132C137.799 64.6208 135.42 56.1027 137.672 48.0821C139.926 40.0615 146.393 34.029 154.55 32.338L172.798 28.5555C173.249 28.462 173.629 28.1737 173.84 27.7642L178.01 19.6735C181.837 12.2485 189.411 7.63574 197.776 7.63574C204.09 7.63574 210.127 10.3457 214.338 15.0701C214.733 15.5125 215.221 15.5784 215.476 15.5784C215.723 15.5784 215.961 15.5187 216.183 15.4009L219.229 13.7854C222.447 12.0789 226.043 11.1769 229.631 11.1769C235.684 11.1769 241.567 13.7107 245.77 18.1278C249.981 22.554 252.131 28.3741 251.825 34.5159L251.136 48.3309C251.097 49.1122 251.651 49.7901 252.425 49.9073L253.327 50.0438C261.361 51.2603 267.881 56.5214 270.767 64.1178C273.653 71.7142 272.272 79.9776 267.072 86.2225L256.235 99.2374C255.979 99.545 255.853 99.949 255.89 100.347L256.209 103.839C257.015 112.632 254.203 121.044 248.289 127.525C242.382 133.998 234.021 137.709 225.349 137.709Z"
          fill="#287D99"/>
    <path d="M187.209 24.4154L183.038 32.5066C181.397 35.6903 178.406 37.9623 174.899 38.6891L156.651 42.4714C147.231 44.4237 143.928 56.1847 150.953 62.7562L153.813 65.4316C156.991 68.4047 158.287 72.8786 157.189 77.0897L153.853 89.8936C149.557 106.379 162.707 122.215 179.701 121.022L193.679 120.041C199.748 119.615 205.828 120.671 211.398 123.118L217.018 125.587C231.427 131.918 247.342 120.457 245.905 104.784L245.585 101.293C245.298 98.158 246.268 95.0367 248.283 92.6171L259.121 79.6017C265.036 72.4986 260.917 61.6594 251.778 60.276L250.877 60.1397C244.853 59.2277 240.498 53.9016 240.802 47.816L241.491 34.0016C241.949 24.8048 232.213 18.6129 224.079 22.9277L221.033 24.5432C216.205 27.1043 210.251 26.0361 206.615 21.9559C201.074 15.7412 191.024 17.0147 187.209 24.4154Z"
          fill="#7ED9D3"/>
    <path d="M222.247 116.673C225.301 116.673 227.777 114.198 227.777 111.144C227.777 108.09 225.301 105.614 222.247 105.614C219.193 105.614 216.718 108.09 216.718 111.144C216.718 114.198 219.193 116.673 222.247 116.673Z"
          fill="#287D99"/>
    <path opacity="0.2"
          d="M236.594 92.3451C239.648 92.3451 242.123 89.8695 242.123 86.8156C242.123 83.7618 239.648 81.2861 236.594 81.2861C233.54 81.2861 231.064 83.7618 231.064 86.8156C231.064 89.8695 233.54 92.3451 236.594 92.3451Z"
          fill="black"/>
    <path d="M199.814 41.2031C202.419 41.2031 204.531 39.0913 204.531 36.4863C204.531 33.8813 202.419 31.7695 199.814 31.7695C197.209 31.7695 195.098 33.8813 195.098 36.4863C195.098 39.0913 197.209 41.2031 199.814 41.2031Z"
          fill="#287D99"/>
    <path opacity="0.2"
          d="M168.651 98.9063C171.256 98.9063 173.368 96.7945 173.368 94.1895C173.368 91.5844 171.256 89.4727 168.651 89.4727C166.046 89.4727 163.935 91.5844 163.935 94.1895C163.935 96.7945 166.046 98.9063 168.651 98.9063Z"
          fill="black"/>
    <path d="M182.559 76.3902C186.732 76.3902 190.114 73.6966 190.114 70.3738C190.114 67.0511 186.732 64.3574 182.559 64.3574C178.386 64.3574 175.004 67.0511 175.004 70.3738C175.004 73.6966 178.386 76.3902 182.559 76.3902Z"
          fill="white"/>
    <path d="M223.51 76.3902C227.683 76.3902 231.065 73.6966 231.065 70.3738C231.065 67.0511 227.683 64.3574 223.51 64.3574C219.338 64.3574 215.955 67.0511 215.955 70.3738C215.955 73.6966 219.338 76.3902 223.51 76.3902Z"
          fill="white"/>
    <path d="M183.821 65.4662C182.608 65.4662 181.624 64.4827 181.624 63.2689V60.0264C181.624 58.8126 182.608 57.8291 183.821 57.8291C185.035 57.8291 186.019 58.8126 186.019 60.0264V63.2689C186.019 64.4827 185.035 65.4662 183.821 65.4662Z"
          fill="#495059"/>
    <path d="M203.034 72.567C206.398 72.567 209.126 69.5153 209.126 65.7508C209.126 61.9863 206.398 58.9346 203.034 58.9346C199.67 58.9346 196.943 61.9863 196.943 65.7508C196.943 69.5153 199.67 72.567 203.034 72.567Z"
          fill="#495059"/>
    <path d="M222.246 65.4662C221.032 65.4662 220.049 64.4827 220.049 63.2689V60.0264C220.049 58.8126 221.032 57.8291 222.246 57.8291C223.46 57.8291 224.443 58.8126 224.443 60.0264V63.2689C224.443 64.4827 223.46 65.4662 222.246 65.4662Z"
          fill="#495059"/>
    <path opacity="0.15"
          d="M196.306 130.298C200.092 130.298 203.769 131.07 207.234 132.593L212.854 135.062C216.855 136.82 221.059 137.711 225.348 137.711C229.894 137.711 234.353 136.689 238.418 134.787C202.41 129.972 182.825 122.347 186.034 102.962C186.824 98.189 194.311 84.2185 179.941 70.076C168.582 58.8972 172.031 34.3771 179.826 16.7363C179.154 17.6586 178.544 18.6386 178.009 19.6754L173.839 27.766C173.628 28.1756 173.248 28.4639 172.797 28.5573L154.549 32.3398C146.392 34.0309 139.925 40.0634 137.672 48.084C135.418 56.1046 137.798 64.6227 143.883 70.315L146.742 72.9895C147.149 73.3704 147.315 73.9423 147.174 74.4813L143.837 87.2855C141.063 97.9314 143.327 109.026 150.05 117.726C156.783 126.438 166.933 131.435 177.897 131.435C178.734 131.435 179.584 131.405 180.423 131.347L194.402 130.365C195.033 130.32 195.674 130.298 196.306 130.298Z"
          fill="black"/>
    <g opacity="0.1">
        <path opacity="0.1"
              d="M204.541 96.9299C204.164 96.9299 203.783 96.8332 203.434 96.6293C202.387 96.017 202.034 94.6711 202.646 93.6235C202.878 93.228 203.096 92.8207 203.308 92.4267C204.674 89.8843 206.37 86.7156 212.075 87.0059C213.287 87.0662 214.22 88.0978 214.16 89.3101C214.099 90.5218 213.076 91.4608 211.855 91.3946C208.93 91.2498 208.453 92.1358 207.179 94.5065C206.949 94.9345 206.711 95.3775 206.44 95.8413C206.031 96.54 205.296 96.9299 204.541 96.9299Z"
              fill="black"/>
        <path opacity="0.1"
              d="M227.776 42.1055C227.495 42.1055 227.209 42.0513 226.934 41.9368C223.803 40.6357 220.295 35.7212 220.059 33.1384C219.949 31.9302 220.839 30.8611 222.047 30.7507C223.25 30.6393 224.317 31.5244 224.434 32.7261C224.607 33.7671 226.983 37.1989 228.62 37.8789C229.74 38.3447 230.272 39.6305 229.806 40.7511C229.455 41.5958 228.637 42.1055 227.776 42.1055Z"
              fill="black"/>
        <path opacity="0.1"
              d="M160.501 56.7495C160.087 56.7495 159.654 56.7316 159.198 56.6936C157.989 56.5919 157.091 55.529 157.192 54.3199C157.294 53.1105 158.355 52.2132 159.566 52.3142C162.143 52.5308 163.531 51.8599 165.142 51.0832C166.709 50.3276 168.481 49.4698 171.134 49.5413C172.347 49.5735 173.304 50.5834 173.272 51.7963C173.24 52.9892 172.263 53.935 171.076 53.935C171.057 53.935 171.037 53.9347 171.017 53.9341C169.44 53.8963 168.382 54.399 167.051 55.0412C165.452 55.8126 163.509 56.7495 160.501 56.7495Z"
              fill="black"/>
        <path opacity="0.1"
              d="M174.862 109.79C174.011 109.79 173.079 109.624 172.054 109.219C170.925 108.773 170.373 107.496 170.818 106.367C171.264 105.239 172.542 104.686 173.669 105.132C175.223 105.746 175.996 105.241 177.747 103.938C179.25 102.821 181.122 101.434 183.844 101.457C185.057 101.47 186.031 102.463 186.019 103.677C186.006 104.882 185.025 105.852 183.822 105.852C183.803 105.852 183.784 105.852 183.765 105.852C182.598 105.852 181.712 106.467 180.37 107.464C178.995 108.488 177.244 109.79 174.862 109.79Z"
              fill="black"/>
        <path opacity="0.1"
              d="M248.524 74.4858C248.259 74.4858 247.989 74.4374 247.726 74.3349C245.843 73.6001 241.319 71.6742 240.001 69.6612C239.336 68.646 239.62 67.284 240.635 66.619C241.646 65.9578 243 66.2352 243.668 67.2389C244.158 67.853 246.795 69.2528 249.324 70.241C250.454 70.6825 251.013 71.9563 250.572 73.0866C250.233 73.9549 249.403 74.4858 248.524 74.4858Z"
              fill="black"/>
    </g>
</svg>
