<svg width="404" height="158" viewBox="0 0 404 158" fill="none" xmlns="http://www.w3.org/2000/svg">
    <path d="M102.243 149H76.5028V115.78H6.54281V95.1L66.8228 2.25999H102.243V93.12H121.823V115.78H102.243V149ZM76.5028 93.12V25.36L31.8428 93.12H76.5028Z"
          fill="#15416B"/>
    <path d="M378.243 149H352.503V115.78H282.543V95.1L342.823 2.25999H378.243V93.12H397.823V115.78H378.243V149ZM352.503 93.12V25.36L307.843 93.12H352.503Z"
          fill="#15416B"/>
    <g clip-path="url(#clip0)">
        <path d="M200.683 134.978C203.339 134.978 205.492 132.825 205.492 130.169C205.492 127.513 203.339 125.359 200.683 125.359C198.026 125.359 195.873 127.513 195.873 130.169C195.873 132.825 198.026 134.978 200.683 134.978Z"
              fill="#7FDBD5"/>
        <path d="M220.828 140.263C223.356 140.263 225.405 138.214 225.405 135.687C225.405 133.159 223.356 131.11 220.828 131.11C218.301 131.11 216.252 133.159 216.252 135.687C216.252 138.214 218.301 140.263 220.828 140.263Z"
              fill="#38648C"/>
        <path d="M206.639 113.774C209.166 113.774 211.215 111.725 211.215 109.198C211.215 106.67 209.166 104.621 206.639 104.621C204.111 104.621 202.062 106.67 202.062 109.198C202.062 111.725 204.111 113.774 206.639 113.774Z"
              fill="#38648C"/>
        <path d="M224.293 123.502C227.479 123.502 230.061 120.92 230.061 117.735C230.061 114.549 227.479 111.967 224.293 111.967C221.108 111.967 218.525 114.549 218.525 117.735C218.525 120.92 221.108 123.502 224.293 123.502Z"
              fill="#7FDBD5"/>
        <path d="M206.64 156C210.052 156 212.818 153.234 212.818 149.821C212.818 146.409 210.052 143.643 206.64 143.643C203.227 143.643 200.461 146.409 200.461 149.821C200.461 153.234 203.227 156 206.64 156Z"
              fill="#7ED9D3"/>
        <path d="M181.189 25.6088L160.256 44.2497L186.775 74.0287L207.707 55.3878C215.931 48.065 216.66 35.4622 209.337 27.2389C202.015 19.0157 189.412 18.286 181.189 25.6088Z"
              fill="#7FDBD5"/>
        <path d="M139.323 62.8908L160.256 44.25L186.775 74.029L165.842 92.6698C157.619 99.9927 145.016 99.263 137.693 91.0398C130.37 82.8165 131.1 70.2137 139.323 62.8908Z"
              fill="#287D99"/>
        <path opacity="0.1"
              d="M209.337 27.2393C205.189 22.5803 199.345 20.3292 193.563 20.5827C191.928 25.9129 192.519 31.8946 195.704 36.9957L202.305 47.5702C203.443 49.3928 203.069 51.7788 201.42 53.1566C189.069 63.4773 173.272 74.6149 165.009 78C152.374 83.1766 141.334 70.0793 143.117 59.5133L139.545 62.6934C131.362 69.9806 130.338 82.5642 137.519 90.8411C144.814 99.2511 157.553 100.051 165.842 92.6701L207.707 55.3882C215.931 48.0653 216.66 35.4625 209.337 27.2393Z"
              fill="black"/>
        <path d="M200.816 30.4985L215.659 54.2751L249.484 33.1587L234.641 9.38206C228.81 0.0415427 216.511 -2.80333 207.17 3.02779C197.83 8.85891 194.985 21.158 200.816 30.4985Z"
              fill="#287D99"/>
        <path d="M230.503 78.0522L215.659 54.2756L249.484 33.1592L264.328 56.9358C270.159 66.2763 267.314 78.5754 257.973 84.4065C248.633 90.2376 236.334 87.3927 230.503 78.0522Z"
              fill="#D1EFF2"/>
        <path opacity="0.1"
              d="M257.974 84.4056C258.871 83.8453 259.707 83.224 260.483 82.5528C236.781 79.0696 205.882 22.4884 207.274 2.96582C207.24 2.98684 207.205 3.00573 207.17 3.02706C197.83 8.85818 194.985 21.1572 200.816 30.4977L230.503 78.0513C236.334 87.3919 248.633 90.2367 257.974 84.4056Z"
              fill="black"/>
        <path d="M173.216 108.539L197.491 118.594C198.386 118.964 199.413 118.539 199.784 117.644L213.7 84.0462C214.071 83.1507 213.646 82.1245 212.751 81.7537L188.476 71.6987C178.303 67.4848 166.64 72.3157 162.426 82.4889C158.212 92.6621 163.043 104.325 173.216 108.539Z"
              fill="#7ED9D3"/>
        <path opacity="0.1"
              d="M199.784 117.644L203.211 109.369C174.54 103.913 164.914 86.9688 167.157 75.624C165.172 77.4963 163.538 79.8043 162.426 82.4886C158.212 92.6616 163.043 104.324 173.216 108.538L197.491 118.593C198.386 118.964 199.413 118.539 199.784 117.644Z"
              fill="black"/>
        <path d="M254.488 108.539L230.213 118.594C229.318 118.964 228.292 118.539 227.921 117.644L214.004 84.0462C213.633 83.1507 214.058 82.1245 214.954 81.7537L239.229 71.6987C249.402 67.4848 261.064 72.3157 265.278 82.4889C269.492 92.6621 264.661 104.325 254.488 108.539Z"
              fill="#287D99"/>
    </g>
    <defs>
        <clipPath id="clip0">
            <rect width="156" height="156" fill="white" transform="translate(122)"/>
        </clipPath>
    </defs>
</svg>
