<svg width="20" height="19" viewBox="0 0 20 19" fill="none" xmlns="http://www.w3.org/2000/svg">
<path d="M14.7106 6.96814C14.3396 6.60307 13.738 6.60307 13.367 6.96814L9.28885 10.9827L7.11059 8.83862C6.73963 8.47354 6.13805 8.47354 5.76699 8.83862C5.39603 9.20379 5.39603 9.79598 5.76699 10.1612L8.61706 12.9666C8.80263 13.1492 9.0457 13.2405 9.28876 13.2405C9.53182 13.2405 9.77508 13.1491 9.96046 12.9666L14.7104 8.29086C15.0815 7.9256 15.0815 7.33341 14.7106 6.96814Z" fill="#27AE60"/>
<path d="M10.2387 0.148438C5.00038 0.148438 0.73877 4.34342 0.73877 9.49997C0.73877 14.6565 5.00038 18.8516 10.2387 18.8516C15.477 18.8516 19.7386 14.6565 19.7386 9.49997C19.7386 4.34342 15.4769 0.148438 10.2387 0.148438ZM10.2387 16.9812C6.04808 16.9812 2.63881 13.6251 2.63881 9.49997C2.63881 5.37486 6.04818 2.01873 10.2387 2.01873C14.4292 2.01873 17.8386 5.37486 17.8386 9.49997C17.8386 13.6251 14.4292 16.9812 10.2387 16.9812Z" fill="#27AE60"/>
</svg>
