<svg width="20" height="19" viewBox="0 0 20 19" fill="none" xmlns="http://www.w3.org/2000/svg">
<path d="M10.2388 0.148438C5.0005 0.148438 0.73877 4.34345 0.73877 9.50012C0.73877 14.6568 5.00041 18.8518 10.2388 18.8518C15.477 18.8518 19.7388 14.6567 19.7388 9.50012C19.7388 4.34354 15.4771 0.148438 10.2388 0.148438ZM10.2388 16.9813C6.04812 16.9813 2.63883 13.6252 2.63883 9.50003C2.63883 5.37489 6.04821 2.01874 10.2388 2.01874C14.4294 2.01874 17.8387 5.37489 17.8387 9.50003C17.8387 13.6252 14.4294 16.9813 10.2388 16.9813Z" fill="#EB5757"/>
<path d="M13.7608 11.6442L11.5825 9.49991L13.7608 7.35563C14.1318 6.99046 14.1318 6.39826 13.7608 6.03309C13.3899 5.66801 12.7883 5.66801 12.4172 6.03309L10.239 8.17728L8.06081 6.03309C7.68984 5.66801 7.08825 5.66801 6.71719 6.03309C6.34622 6.39826 6.34622 6.99046 6.71719 7.35573L8.89549 9.50001L6.71719 11.6442C6.34622 12.0094 6.34622 12.6016 6.71719 12.9668C6.90277 13.1494 7.14584 13.2407 7.38891 13.2407C7.63197 13.2407 7.87523 13.1493 8.06062 12.9668L10.239 10.8226L12.4173 12.9668C12.6029 13.1494 12.846 13.2407 13.089 13.2407C13.3321 13.2407 13.5754 13.1493 13.7607 12.9668C14.1318 12.6016 14.1318 12.0095 13.7608 11.6442Z" fill="#EB5757"/>
</svg>
